<svg id="Camada_2" data-name="Camada 2" xmlns="http://www.w3.org/2000/svg" xmlns:xlink="http://www.w3.org/1999/xlink" viewBox="0 0 2368 711.97"><defs><style>.cls-1{fill:#1a1a1a;}.cls-2{fill:#333;}.cls-3{stroke:#534741;fill:url(#Gradiente_sem_nome_128);}</style><linearGradient id="Gradiente_sem_nome_128" x1="69.03" y1="357.93" x2="1025.3" y2="357.93" gradientUnits="userSpaceOnUse"><stop offset="0.49" stop-color="#1b82c1"/><stop offset="0.5" stop-color="#0c5179"/></linearGradient></defs><title>logo-wide</title><path class="cls-1" d="M44.19,355.12L283.5,115.81l98.73,98.73,164-164L713.63,218l99.88-99.88L1053.39,358,814.09,597.31,712.47,495.7,546.77,661.4,382.22,496.85,284.07,595Zm239.31,129,43-43-85.45-85.45,86-86-43.6-43.6-129,129Zm263.27,48.5L648.11,431.33l-73.9-73.9,75.06-75.06L546.19,179.3l-99.6,99.6,76.79,76.79-76.79,76.79ZM391.46,376.78l21.66-21.66L392,334l-21.66,21.66Zm422,109.7,129-129-129-129-44.75,44.75,83.14,83.14L767.6,440.57ZM703.81,376.2l19.93-19.93L705,337.5,685,357.43Z"/><path class="cls-2" d="M44.19,355.12L283.5,115.81l98.73,98.73,164-164L713.63,218l99.88-99.88L1053.39,358,814.09,597.31,712.47,495.7,546.77,661.4,382.22,496.85,284.07,595Zm239.31,129,43-43-85.45-85.45,86-86-43.6-43.6-129,129Zm263.27,48.5L648.11,431.33l-73.9-73.9,75.06-75.06L546.19,179.3l-99.6,99.6,76.79,76.79-76.79,76.79ZM391.46,376.78l21.66-21.66L392,334l-21.66,21.66Zm422,109.7,129-129-129-129-44.75,44.75,83.14,83.14L767.6,440.57ZM703.81,376.2l19.93-19.93L705,337.5,685,357.43Z"/><path class="cls-2" d="M284.07,596.49L42.7,355.12l240.8-240.8L382.22,213l164-164L713.63,216.51l99.88-99.88L1054.88,358,814.09,598.8,712.47,497.19l-165.7,165.7L382.22,498.34ZM45.68,355.12L284.07,593.51l98.15-98.15L546.77,659.91l165.7-165.7L814.09,595.82,1051.9,358,813.51,119.61l-99.88,99.88L546.19,52.06l-164,164L283.5,117.3ZM283.5,485.65L153,355.12,283.5,224.58l45.09,45.09-86,86L328,441.14ZM155.94,355.12L283.5,482.67,325,441.14l-85.45-85.45,86-86L283.5,227.56Zm390.83,179L445.1,432.48l76.79-76.79L445.1,278.91,546.19,177.81,650.75,282.37l-75.06,75.06,73.9,73.9ZM448.08,432.48l98.69,98.69,99.84-99.84-73.9-73.9,75.06-75.06L546.19,180.79l-98.11,98.11,76.79,76.79Zm-56.62-54.22-22.57-22.57L392,332.55l22.57,22.57Zm-19.59-22.57,19.59,19.59,20.17-20.17L392,335.53ZM813.51,488l-47.4-47.4,84.29-84.29-83.14-83.14,46.24-46.24L944,357.43Zm-44.42-47.4L813.51,485,941.07,357.43,813.51,229.87l-43.26,43.26,83.14,83.14Zm-65.28-62.88-20.26-20.26L705,336l20.26,20.26Zm-17.28-20.26,17.28,17.28,18.44-18.44L705,339Z"/><path class="cls-3" d="M1025.3,361L811.44,147.13l-97.77,97.77-168-168-165,165-97.77-97.77L69,357.93,282.89,571.8,380.66,474l165,165,168-168L814.49,571.8Zm-742.4,149.7L127.08,354.88,279.84,202.12l70.27,70.27-85.54,85.54,85.54,85.54ZM390.19,403.07l-47.34-47.34,47.92-47.92,47.34,47.34ZM545.64,559.58L420.38,434.31l76.38-76.38-76.38-76.38L545.64,156.29,674,284.61l-73.32,73.32L674,431.26Zm156.9-157.08-45-45,46.19-46.19,45,45Zm108.9,111.26-70.27-70.27,85.54-85.54-85.54-85.54,70.27-70.27L967.25,357.93Z"/><path class="cls-2" d="M1082.12,218.87h67.71l44.16,122q4.2,12.2,8,25t8,25.44h1.68q4.2-12.62,7.78-25.44t7.78-25l43.32-122h67.29V493.09h-56.36V392.57q0-10.09.84-22.29t2.1-24.6q1.26-12.4,2.52-24.39t2.52-22.08h-1.68l-22.29,65.19-39.11,104.72h-34.07L1153.19,364.4l-21.87-65.19h-1.68q1.26,10.09,2.52,22.08t2.52,24.39q1.26,12.41,2.1,24.6t0.84,22.29V493.09h-55.51V218.87Z"/><path class="cls-2" d="M1487.93,498.14q-27.76,0-50.68-9.89a110,110,0,0,1-39.32-28.39q-16.4-18.5-25.44-45t-9-60.15q0-33.64,9-59.93t25.44-44.16a109.28,109.28,0,0,1,39.32-27.34q22.92-9.46,50.68-9.46t50.68,9.46a108.11,108.11,0,0,1,39.32,27.55q16.4,18.09,25.44,44.37t9,59.51q0,33.66-9,60.15t-25.44,45a110.09,110.09,0,0,1-39.32,28.39Q1515.68,498.14,1487.93,498.14Zm0-53.41q28.17,0,44.58-24.18t16.4-65.82q0-41.21-16.4-64.35t-44.58-23.13q-28.18,0-44.58,23.13t-16.4,64.35q0,41.64,16.4,65.82T1487.93,444.73Z"/><path class="cls-2" d="M1648.16,218.87h77.39q31.54,0,56.78,8a113.9,113.9,0,0,1,43.32,24.6q18.08,16.62,27.76,42.27t9.67,61q0,35.33-9.67,61.41t-27.34,43.11a112.29,112.29,0,0,1-42.27,25.44q-24.61,8.42-54.89,8.41h-80.75V218.87ZM1721.76,443a103.39,103.39,0,0,0,32-4.62,59,59,0,0,0,24.39-14.93q10.09-10.3,15.77-27.13t5.68-41.64q0-24.38-5.68-41t-15.77-26.5a57.48,57.48,0,0,0-24.39-14.09,113.23,113.23,0,0,0-32-4.21H1710V443h11.78Z"/><path class="cls-2" d="M2036.86,427.9h-83.7l-16.82,65.19h-63.09l85.8-274.22h74.44l85.8,274.22h-65.61Zm-12.62-48.37-6.31-25.23q-5.9-20.6-11.36-43.74T1995.65,266H1994q-5,21.87-10.3,44.79t-11.14,43.53l-6.73,25.23h58.46Z"/><path class="cls-2" d="M2151.94,218.87h61.83V440.94h108.51v52.15H2151.94V218.87Z"/></svg>